HIERARCHY
ROOT hip
{
	OFFSET	0.00  0.00  0.00 
	CHANNELS 6 Xposition Yposition Zposition Xrotation Zrotation Yrotation
	JOINT waist
	{
		OFFSET	0.000000 2.191865 -0.079388
		CHANNELS 3 Xrotation Zrotation Yrotation
		JOINT abdomen
		{
			OFFSET	0.000000 2.770984 0.119082
			CHANNELS 3 Xrotation Zrotation Yrotation
			JOINT chest
			{
				OFFSET	0.000000 2.879627 -0.290598
				CHANNELS 3 Xrotation Zrotation Yrotation
				JOINT neck
				{
					OFFSET	0.000000 12.342733 -1.613748
					CHANNELS 3 Xrotation Zrotation Yrotation
					JOINT head
					{
						OFFSET	0.000000 4.485597 1.807195
						CHANNELS 3 Xrotation Zrotation Yrotation
						End Site
						{
							OFFSET 0.000000 7.191734 2.024398
						}
					}
				}
				JOINT lCollar
				{
					OFFSET	1.858774 10.237258 -1.915852
					CHANNELS 3 Zrotation Yrotation Xrotation
					JOINT lShldr
					{
						OFFSET	6.103279 0.000102 -0.038601
						CHANNELS 3 Zrotation Yrotation Xrotation
						JOINT lForeArm
						{
							OFFSET	10.574100 -0.365985 -0.655940
							CHANNELS 3 Zrotation Yrotation Xrotation
							JOINT lHand
							{
								OFFSET	13.213392 -0.641131 0.276866
								CHANNELS 3 Zrotation Yrotation Xrotation
								JOINT lThumb1
								{
									OFFSET	1.920964 -1.225712 1.722395
									CHANNELS 3 Zrotation Yrotation Xrotation
									JOINT lThumb2
									{
										OFFSET	0.248544 -0.143036 0.768265
										CHANNELS 3 Zrotation Yrotation Xrotation
										JOINT lThumb3
										{
											OFFSET	0.628484 -0.225174 0.508305
											CHANNELS 3 Zrotation Yrotation Xrotation
											End Site
											{
												OFFSET 0.831712 -0.207978 0.609962
											}
										}
									}
								}
								JOINT lIndex1
								{
									OFFSET	5.093442 -0.710319 1.829884
									CHANNELS 3 Zrotation Yrotation Xrotation
									JOINT lIndex2
									{
										OFFSET	0.889470 -0.051998 0.127073
										CHANNELS 3 Zrotation Yrotation Xrotation
										JOINT lIndex3
										{
											OFFSET	0.889570 -0.155981 0.127073
											CHANNELS 3 Zrotation Yrotation Xrotation
											End Site
											{
												OFFSET 0.797115 -0.294470 0.076252
											}
										}
									}
								}
								JOINT lMid1
								{
									OFFSET	5.154641 -0.519844 0.864111
									CHANNELS 3 Zrotation Yrotation Xrotation
									JOINT lMid2
									{
										OFFSET	0.928821 -0.051992 0.050831
										CHANNELS 3 Zrotation Yrotation Xrotation
										JOINT lMid3
										{
											OFFSET	0.984253 -0.311865 0.050831
											CHANNELS 3 Zrotation Yrotation Xrotation
											End Site
											{
												OFFSET 0.779717 -0.606438 -0.050831
											}
										}
									}
								}
								JOINT lRing1
								{
									OFFSET	4.924408 -0.754930 -0.235503
									CHANNELS 3 Zrotation Yrotation Xrotation
									JOINT lRing2
									{
										OFFSET	0.981624 -0.036924 -0.108278
										CHANNELS 3 Zrotation Yrotation Xrotation
										JOINT lRing3
										{
											OFFSET	0.805613 -0.205247 -0.041717
											CHANNELS 3 Zrotation Yrotation Xrotation
											End Site
											{
												OFFSET 0.667431 -0.470481 -0.035991
											}
										}
									}
								}
								JOINT lPinky1
								{
									OFFSET	4.535460 -0.816635 -1.006206
									CHANNELS 3 Zrotation Yrotation Xrotation
									JOINT lPinky2
									{
										OFFSET	0.690596 -0.064334 -0.168800
										CHANNELS 3 Zrotation Yrotation Xrotation
										JOINT lPinky3
										{
											OFFSET	0.598039 -0.111176 -0.071973
											CHANNELS 3 Zrotation Yrotation Xrotation
											End Site
											{
												OFFSET 0.422025 -0.290925 -0.035981
											}
										}
									}
								}
							}
						}
					}
				}
				JOINT rCollar
				{
					OFFSET	-1.858774 10.237258 -1.915852
					CHANNELS 3 Zrotation Yrotation Xrotation
					JOINT rShldr
					{
						OFFSET	-6.103279 0.000102 -0.038601
						CHANNELS 3 Zrotation Yrotation Xrotation
						JOINT rForeArm
						{
							OFFSET	-10.574100 -0.365985 -0.655940
							CHANNELS 3 Zrotation Yrotation Xrotation
							JOINT rHand
							{
								OFFSET	-13.213392 -0.641131 0.276866
								CHANNELS 3 Zrotation Yrotation Xrotation
								JOINT rIndex1
								{
									OFFSET	-5.093442 -0.710319 1.829884
									CHANNELS 3 Zrotation Yrotation Xrotation
									JOINT rIndex2
									{
										OFFSET	-0.889470 -0.051998 0.127073
										CHANNELS 3 Zrotation Yrotation Xrotation
										JOINT rIndex3
										{
											OFFSET	-0.889570 -0.155981 0.127073
											CHANNELS 3 Zrotation Yrotation Xrotation
											End Site
											{
												OFFSET -0.797115 -0.294470 0.076252
											}
										}
									}
								}
								JOINT rThumb1
								{
									OFFSET	-1.920964 -1.225712 1.722395
									CHANNELS 3 Zrotation Yrotation Xrotation
									JOINT rThumb2
									{
										OFFSET	-0.248544 -0.143036 0.768265
										CHANNELS 3 Zrotation Yrotation Xrotation
										JOINT rThumb3
										{
											OFFSET	-0.628484 -0.225174 0.508305
											CHANNELS 3 Zrotation Yrotation Xrotation
											End Site
											{
												OFFSET -0.831712 -0.207978 0.609962
											}
										}
									}
								}
								JOINT rMid1
								{
									OFFSET	-5.154641 -0.519844 0.864111
									CHANNELS 3 Zrotation Yrotation Xrotation
									JOINT rMid2
									{
										OFFSET	-0.928821 -0.051992 0.050831
										CHANNELS 3 Zrotation Yrotation Xrotation
										JOINT rMid3
										{
											OFFSET	-0.984253 -0.311865 0.050831
											CHANNELS 3 Zrotation Yrotation Xrotation
											End Site
											{
												OFFSET -0.779717 -0.606438 -0.050831
											}
										}
									}
								}
								JOINT rRing1
								{
									OFFSET	-4.924408 -0.754930 -0.235503
									CHANNELS 3 Zrotation Yrotation Xrotation
									JOINT rRing2
									{
										OFFSET	-0.981624 -0.036924 -0.108278
										CHANNELS 3 Zrotation Yrotation Xrotation
										JOINT rRing3
										{
											OFFSET	-0.805613 -0.205247 -0.041717
											CHANNELS 3 Zrotation Yrotation Xrotation
											End Site
											{
												OFFSET -0.667431 -0.470481 -0.035991
											}
										}
									}
								}
								JOINT rPinky1
								{
									OFFSET	-4.535460 -0.816635 -1.006206
									CHANNELS 3 Zrotation Yrotation Xrotation
									JOINT rPinky2
									{
										OFFSET	-0.690596 -0.064334 -0.168800
										CHANNELS 3 Zrotation Yrotation Xrotation
										JOINT rPinky3
										{
											OFFSET	-0.598039 -0.111176 -0.071973
											CHANNELS 3 Zrotation Yrotation Xrotation
											End Site
											{
												OFFSET -0.422025 -0.290925 -0.035981
											}
										}
									}
								}
							}
						}
					}
				}
			}
		}
	}
	JOINT lThigh
	{
		OFFSET	5.761895 -0.730553 0.000101
		CHANNELS 3 Xrotation Zrotation Yrotation
		JOINT lShin
		{
			OFFSET	-1.171020 -18.459274 1.627449
			CHANNELS 3 Xrotation Zrotation Yrotation
			JOINT lFoot
			{
				OFFSET	-0.883715 -16.872776 -3.357785
				CHANNELS 3 Xrotation Zrotation Yrotation
				JOINT lToe
				{
					OFFSET	1.287613 -2.778491 2.836049
					CHANNELS 3 Xrotation Yrotation Zrotation
					End Site
					{
						OFFSET 1.362641 -0.436631 3.828194
					}
				}
			}
		}
	}
	JOINT rThigh
	{
		OFFSET	-5.761895 -0.730553 0.000101
		CHANNELS 3 Xrotation Zrotation Yrotation
		JOINT rShin
		{
			OFFSET	1.171020 -18.459274 1.627449
			CHANNELS 3 Xrotation Zrotation Yrotation
			JOINT rFoot
			{
				OFFSET	0.883715 -16.872776 -3.357785
				CHANNELS 3 Xrotation Zrotation Yrotation
				JOINT rToe
				{
					OFFSET	-1.287613 -2.778491 2.836049
					CHANNELS 3 Xrotation Yrotation Zrotation
					End Site
					{
						OFFSET -1.362641 -0.436631 3.828194
					}
				}
			}
		}
	}
}
MOTION
Frames:     7
Frame Time: 0.033333
0.675499 37.538982 -1.795875 20.846663 -2.632189 -18.426952 -0.009766 0.000000 0.000000 9.643434 7.447429 -8.187079 -11.823907 -6.421669 5.999442 2.988278 0.000000 0.000000 -7.379725 6.437473 16.417892 6.321775 8.427770 3.209526 -70.230621 3.222039 7.264852 0.450652 -34.594048 9.969540 -8.043818 8.219344 1.406413 16.787247 12.659203 39.062611 5.526437 29.268394 9.918445 1.263061 13.891337 2.973230 -31.787315 0.924486 4.319869 -56.952110 3.077218 7.075561 -75.979698 2.992849 5.678606 -39.699238 -7.025636 1.590718 -57.536808 0.927851 2.574478 -76.234497 -1.273617 -3.640374 -38.723091 -11.176205 -3.404331 -57.531403 -1.035633 -2.602874 -76.266884 -1.152166 -3.072029 -35.301006 -16.906267 -11.818995 -57.142742 -2.591130 -5.988226 -76.127655 -1.859994 -4.867922 -6.417078 14.957598 -9.162859 70.022697 11.775764 11.848903 -1.354663 50.568729 -12.511567 8.184595 5.093194 -0.274390 41.254158 -1.725108 5.427964 64.803276 -4.015355 7.696147 81.492836 -3.475539 5.858987 -15.846500 -14.828119 31.597164 -2.277228 -16.117624 4.879073 -6.506135 -39.188354 10.642632 41.903328 6.922441 1.679641 65.490799 -1.259043 2.811578 81.769859 1.520215 -3.791123 40.900642 11.296201 -3.561085 65.485382 1.347207 -2.842825 81.805428 1.362507 -3.196016 37.278332 17.170126 -12.245070 65.029221 3.353450 -6.523013 81.653137 2.204035 -5.062697 -45.408794 17.063698 15.721663 39.514282 0.483944 -1.737616 -15.089025 2.098221 -13.519216 3.498665 0.020434 -1.247545 -20.632542 -1.422643 -11.926255 27.638306 -0.162143 1.215216 -18.100304 4.346637 19.665489 1.831931 -0.035314 0.638533 
1.039425 37.622734 -1.795875 20.855385 -4.031790 -17.123394 -0.009766 0.000000 0.000000 9.706491 8.924785 -7.093040 -12.105573 -5.192610 5.118102 2.988278 0.000000 0.000000 -6.973866 5.691607 14.098338 6.326833 6.474205 2.272831 -70.219963 1.974090 7.932998 0.555207 -36.993874 8.190034 -8.070331 7.221612 1.277514 16.787247 12.659203 39.062611 5.526437 29.268394 9.918445 1.263061 13.891337 2.973230 -31.787315 0.924486 4.319869 -56.952110 3.077218 7.075561 -75.979698 2.992849 5.678606 -39.699238 -7.025636 1.590718 -57.536808 0.927851 2.574478 -76.234497 -1.273617 -3.640374 -38.723091 -11.176205 -3.404331 -57.531403 -1.035633 -2.602874 -76.266884 -1.152166 -3.072029 -35.301006 -16.906267 -11.818995 -57.142742 -2.591130 -5.988226 -76.127655 -1.859994 -4.867922 -6.411596 13.923303 -8.231801 70.024506 11.114031 11.308867 -1.222605 48.627377 -10.740451 8.185373 4.414904 -0.189511 41.254158 -1.725108 5.427964 64.803276 -4.015355 7.696147 81.492836 -3.475539 5.858987 -15.846500 -14.828119 31.597164 -2.277228 -16.117624 4.879073 -6.506135 -39.188354 10.642632 41.903328 6.922441 1.679641 65.490799 -1.259043 2.811578 81.769859 1.520215 -3.791123 40.900642 11.296201 -3.561085 65.485382 1.347207 -2.842825 81.805428 1.362507 -3.196016 37.278332 17.170126 -12.245070 65.029221 3.353450 -6.523013 81.653137 2.204035 -5.062697 -44.648891 15.291915 12.099124 39.335278 0.463546 -1.806708 -16.172031 2.374907 -13.161787 5.211118 0.007657 -1.853520 -23.405962 -0.989453 -11.700241 30.854685 -0.210996 1.403330 -17.584110 4.902431 19.058079 1.380780 -0.030946 0.478832 
1.363956 37.719093 -1.795875 20.866753 -5.265991 -15.231355 -0.009766 0.000000 0.000000 9.770190 10.067270 -5.798840 -12.533978 -3.724874 4.038454 2.988278 0.000000 0.000000 -6.211380 5.180526 12.591789 6.332035 4.305875 1.288093 -70.207954 0.580054 8.670094 0.681161 -39.644627 6.329119 -8.097875 6.078509 1.131004 16.787247 12.659203 39.062611 5.526437 29.268394 9.918445 1.263061 13.891337 2.973230 -31.787315 0.924486 4.319869 -56.952110 3.077218 7.075561 -75.979698 2.992849 5.678606 -39.699238 -7.025636 1.590718 -57.536808 0.927851 2.574478 -76.234497 -1.273617 -3.640374 -38.723091 -11.176205 -3.404331 -57.531403 -1.035633 -2.602874 -76.266884 -1.152166 -3.072029 -35.301006 -16.906267 -11.818995 -57.142742 -2.591130 -5.988226 -76.127655 -1.859994 -4.867922 -6.404711 12.547314 -7.046977 70.029640 10.227815 10.720941 -1.094472 46.528694 -8.534782 8.184700 3.426536 -0.065829 41.254158 -1.725108 5.427964 64.803276 -4.015355 7.696147 81.492836 -3.475539 5.858987 -15.846500 -14.828119 31.597164 -2.277228 -16.117624 4.879073 -6.506135 -39.188354 10.642632 41.903328 6.922441 1.679641 65.490799 -1.259043 2.811578 81.769859 1.520215 -3.791123 40.900642 11.296201 -3.561085 65.485382 1.347207 -2.842825 81.805428 1.362507 -3.196016 37.278332 17.170126 -12.245070 65.029221 3.353450 -6.523013 81.653137 2.204035 -5.062697 -43.608807 13.363137 8.928469 38.692192 0.435644 -1.777052 -16.871246 2.667914 -12.952456 7.466387 -0.036796 -2.650628 -27.344818 -0.354701 -11.596374 33.322105 -0.269286 1.507432 -14.542274 6.036745 17.770586 1.426816 -0.031450 0.495128 
1.634611 37.815739 -1.795875 20.878998 -6.245450 -12.847908 -0.009766 0.000000 0.000000 9.825652 10.820791 -4.338077 -13.030090 -2.112433 2.808184 2.988278 0.000000 0.000000 -5.329628 4.700095 11.281918 6.337356 1.981395 0.263181 -70.194763 -0.911329 9.436870 0.826820 -42.388172 4.348588 -8.124382 4.838459 0.973844 16.787247 12.659203 39.062611 5.526437 29.268394 9.918445 1.263061 13.891337 2.973230 -31.787315 0.924486 4.319869 -56.952110 3.077218 7.075561 -75.979698 2.992849 5.678606 -39.699238 -7.025636 1.590718 -57.536808 0.927851 2.574478 -76.234497 -1.273617 -3.640374 -38.723091 -11.176205 -3.404331 -57.531403 -1.035633 -2.602874 -76.266884 -1.152166 -3.072029 -35.301006 -16.906267 -11.818995 -57.142742 -2.591130 -5.988226 -76.127655 -1.859994 -4.867922 -6.396935 10.878314 -5.688564 70.037552 9.165836 10.101396 -0.972426 44.345497 -6.025671 8.180879 2.195928 0.087748 41.254158 -1.725108 5.427964 64.803276 -4.015355 7.696147 81.492836 -3.475539 5.858987 -15.846500 -14.828119 31.597164 -2.277228 -16.117624 4.879073 -6.506135 -39.188354 10.642632 41.903328 6.922441 1.679641 65.490799 -1.259043 2.811578 81.769859 1.520215 -3.791123 40.900642 11.296201 -3.561085 65.485382 1.347207 -2.842825 81.805428 1.362507 -3.196016 37.278332 17.170126 -12.245070 65.029221 3.353450 -6.523013 81.653137 2.204035 -5.062697 -42.378513 11.549088 6.658769 37.891846 0.409469 -1.761514 -17.392982 3.039014 -12.858360 9.923204 -0.120910 -3.516567 -32.724953 -0.093964 -12.089448 36.831783 -0.355903 1.674368 -7.129726 5.707521 15.107198 1.813517 -0.035160 0.632013 
1.836904 37.900356 -1.795875 20.890329 -6.900271 -10.067343 -0.009766 0.000000 0.000000 9.862549 11.101951 -2.800581 -13.535055 -0.449299 1.475028 2.988278 0.000000 0.000000 -4.585746 4.080196 9.767215 6.343031 -0.430867 -0.830196 -70.180946 -2.451289 10.213738 0.992384 -45.150906 2.240140 -8.148754 3.520832 0.806675 16.787247 12.659203 39.062611 5.526437 29.268394 9.918445 1.263061 13.891337 2.973230 -31.787315 0.924486 4.319869 -56.952110 3.077218 7.075561 -75.979698 2.992849 5.678606 -39.699238 -7.025636 1.590718 -57.536808 0.927851 2.574478 -76.234497 -1.273617 -3.640374 -38.723091 -11.176205 -3.404331 -57.531403 -1.035633 -2.602874 -76.266884 -1.152166 -3.072029 -35.301006 -16.906267 -11.818995 -57.142742 -2.591130 -5.988226 -76.127655 -1.859994 -4.867922 -6.388753 8.994323 -4.230865 70.048096 7.947568 9.463482 -0.856644 42.121586 -3.339133 8.172473 0.790921 0.263475 41.254158 -1.725108 5.427964 64.803276 -4.015355 7.696147 81.492836 -3.475539 5.858987 -15.846500 -14.828119 31.597164 -2.277228 -16.117624 4.879073 -6.506135 -39.188354 10.642632 41.903328 6.922441 1.679641 65.490799 -1.259043 2.811578 81.769859 1.520215 -3.791123 40.900642 11.296201 -3.561085 65.485382 1.347207 -2.842825 81.805428 1.362507 -3.196016 37.278332 17.170126 -12.245070 65.029221 3.353450 -6.523013 81.653137 2.204035 -5.062697 -41.026321 9.471737 4.262267 36.829124 0.380527 -1.714950 -17.756334 3.219271 -12.815512 12.304947 -0.237889 -4.352367 -38.211155 -0.458783 -12.861744 39.270649 -0.440220 1.743922 -0.649785 2.315624 13.433601 2.375167 -0.038903 0.830867 
1.956330 37.960636 -1.795875 20.899111 -7.150856 -6.976877 -0.009766 0.000000 0.000000 9.874036 10.839563 -1.226630 -13.961380 1.190919 0.079450 2.988278 0.000000 0.000000 -4.204405 3.236589 7.930475 6.349123 -2.872290 -1.992809 -70.165871 -4.020483 10.951262 1.171270 -47.801281 0.016801 -8.169807 2.164383 0.635858 16.787247 12.659203 39.062611 5.526437 29.268394 9.918445 1.263061 13.891337 2.973230 -31.787315 0.924486 4.319869 -56.952110 3.077218 7.075561 -75.979698 2.992849 5.678606 -39.699238 -7.025636 1.590718 -57.536808 0.927851 2.574478 -76.234497 -1.273617 -3.640374 -38.723091 -11.176205 -3.404331 -57.531403 -1.035633 -2.602874 -76.266884 -1.152166 -3.072029 -35.301006 -16.906267 -11.818995 -57.142742 -2.591130 -5.988226 -76.127655 -1.859994 -4.867922 -6.380457 6.924570 -2.724956 70.060913 6.631460 8.845965 -0.748370 39.920105 -0.594820 8.158507 -0.730325 0.453980 41.254158 -1.725108 5.427964 64.803276 -4.015355 7.696147 81.492836 -3.475539 5.858987 -15.846500 -14.828119 31.597164 -2.277228 -16.117624 4.879073 -6.506135 -39.188354 10.642632 41.903328 6.922441 1.679641 65.490799 -1.259043 2.811578 81.769859 1.520215 -3.791123 40.900642 11.296201 -3.561085 65.485382 1.347207 -2.842825 81.805428 1.362507 -3.196016 37.278332 17.170126 -12.245070 65.029221 3.353450 -6.523013 81.653137 2.204035 -5.062697 -39.352894 7.737830 3.268767 35.443657 0.328805 -1.680291 -17.938318 3.317934 -13.029522 14.124461 -0.350681 -4.987653 -43.398815 -1.876789 -14.114337 41.201015 -0.496504 1.825800 4.729606 -0.583737 12.464191 2.964451 -0.040737 1.039524 
1.978402 37.984245 -1.795875 20.904104 -6.946769 -3.662114 -0.009766 0.000000 0.000000 9.858144 10.004389 0.322831 -14.241465 2.702277 -1.312751 2.988278 0.000000 0.000000 -4.346340 2.077842 5.666003 6.355754 -5.284254 -3.233519 -70.150261 -5.560439 11.630772 1.354601 -50.215897 -2.356343 -8.186698 0.817568 0.466727 16.787247 12.659203 39.062611 5.526437 29.268394 9.918445 1.263061 13.891337 2.973230 -31.787315 0.924486 4.319869 -56.952110 3.077218 7.075561 -75.979698 2.992849 5.678606 -39.699238 -7.025636 1.590718 -57.536808 0.927851 2.574478 -76.234497 -1.273617 -3.640374 -38.723091 -11.176205 -3.404331 -57.531403 -1.035633 -2.602874 -76.266884 -1.152166 -3.072029 -35.301006 -16.906267 -11.818995 -57.142742 -2.591130 -5.988226 -76.127655 -1.859994 -4.867922 -6.372427 4.737386 -1.239311 70.075836 5.227286 8.246458 -0.650139 37.832981 2.076689 8.138783 -2.299962 0.651014 41.254158 -1.725108 5.427964 64.803276 -4.015355 7.696147 81.492836 -3.475539 5.858987 -15.846500 -14.828119 31.597164 -2.277228 -16.117624 4.879073 -6.506135 -39.188354 10.642632 41.903328 6.922441 1.679641 65.490799 -1.259043 2.811578 81.769859 1.520215 -3.791123 40.900642 11.296201 -3.561085 65.485382 1.347207 -2.842825 81.805428 1.362507 -3.196016 37.278332 17.170126 -12.245070 65.029221 3.353450 -6.523013 81.653137 2.204035 -5.062697 -37.536007 6.243568 3.444960 34.096226 0.275707 -1.665664 -18.221806 3.287284 -13.486931 14.124461 -0.350681 -4.987653 -47.910065 -3.695910 -14.474427 42.382511 -0.562899 1.821249 8.116241 -2.284202 12.193562 3.415622 -0.040687 1.199283 
